<svg width="64" height="64" viewBox="0 0 64 64" fill="none" xmlns="http://www.w3.org/2000/svg">
<path d="M32 0C14.3286 0 0 14.3286 0 32C0 49.6714 14.3286 64 32 64C49.6714 64 64 49.6714 64 32C64 14.3286 49.6714 0 32 0ZM34.6071 39.9143C31.4714 44.3286 25.1714 45.6143 20.2571 43.7214C15.3286 41.8429 11.8286 36.6357 12.25 31.3286C12.3571 24.8357 18.3357 19.1429 24.8286 19.3643C27.9429 19.2214 30.8714 20.5714 33.2571 22.4786C32.2357 23.6357 31.1857 24.75 30.0571 25.7857C27.1929 23.8071 23.1143 23.2429 20.25 25.5286C16.15 28.3643 15.9643 35.0571 19.9071 38.1071C23.7429 41.5857 30.9929 39.8571 32.0571 34.5286C29.6571 34.4929 27.2429 34.5286 24.8429 34.45C24.8357 33.0143 24.8286 31.5857 24.8357 30.15C28.85 30.1357 32.8714 30.1286 36.8929 30.1643C37.1286 33.5429 36.6786 37.1286 34.6071 39.9143ZM51.9286 33.75C50.7286 33.7643 49.5286 33.7714 48.3286 33.7786C48.3143 34.9786 48.3071 36.1786 48.3071 37.3786H44.7143C44.7 36.1786 44.7 34.9857 44.6929 33.7857C43.4929 33.7714 42.2929 33.7643 41.0929 33.75V30.1714C42.2929 30.1571 43.4929 30.15 44.6929 30.15C44.7 28.95 44.7143 27.75 44.7214 26.55H48.3071L48.3286 30.15C49.5286 30.1643 50.7286 30.1643 51.9286 30.1714V33.75Z" fill="#E9765B"/>
</svg>
