<svg width="40" height="40" viewBox="0 0 40 40" fill="none" xmlns="http://www.w3.org/2000/svg">
<path d="M34.375 34.5V8.24996C34.375 6.18184 32.6931 4.49996 30.625 4.49996H26.875V0.749962H23.125V4.49996H11.875V0.749962H8.125V4.49996H4.375C2.30687 4.49996 0.625 6.18184 0.625 8.24996V34.5C0.625 36.5681 2.30687 38.25 4.375 38.25H30.625C32.6931 38.25 34.375 36.5681 34.375 34.5ZM11.875 30.75H8.125V27H11.875V30.75ZM11.875 23.25H8.125V19.5H11.875V23.25ZM19.375 30.75H15.625V27H19.375V30.75ZM19.375 23.25H15.625V19.5H19.375V23.25ZM26.875 30.75H23.125V27H26.875V30.75ZM26.875 23.25H23.125V19.5H26.875V23.25ZM30.625 13.875H4.375V10.125H30.625V13.875Z" fill="#E9765B"/>
</svg>
