<svg width="64" height="64" viewBox="0 0 64 64" fill="none" xmlns="http://www.w3.org/2000/svg">
<path d="M32 0C14.3267 0 0 14.3267 0 32C0 49.6733 14.3267 64 32 64C49.6733 64 64 49.6733 64 32C64 14.3267 49.6733 0 32 0ZM44.3067 36.1033C44.3067 36.1033 47.1367 38.8967 47.8333 40.1933C47.8533 40.22 47.8633 40.2467 47.87 40.26C48.1533 40.7367 48.22 41.1067 48.08 41.3833C47.8467 41.8433 47.0467 42.07 46.7733 42.09H41.7733C41.4267 42.09 40.7 42 39.82 41.3933C39.1433 40.92 38.4767 40.1433 37.8267 39.3867C36.8567 38.26 36.0167 37.2867 35.17 37.2867C35.0625 37.2865 34.9556 37.3034 34.8533 37.3367C34.2133 37.5433 33.3933 38.4567 33.3933 40.89C33.3933 41.65 32.7933 42.0867 32.37 42.0867H30.08C29.3 42.0867 25.2367 41.8133 21.6367 38.0167C17.23 33.3667 13.2633 24.04 13.23 23.9533C12.98 23.35 13.4967 23.0267 14.06 23.0267H19.11C19.7833 23.0267 20.0033 23.4367 20.1567 23.8C20.3367 24.2233 20.9967 25.9067 22.08 27.8C23.8367 30.8867 24.9133 32.14 25.7767 32.14C25.9385 32.1381 26.0975 32.0969 26.24 32.02C27.3667 31.3933 27.1567 27.3767 27.1067 26.5433C27.1067 26.3867 27.1033 24.7467 26.5267 23.96C26.1133 23.39 25.41 23.1733 24.9833 23.0933C25.156 22.855 25.3835 22.6618 25.6467 22.53C26.42 22.1433 27.8133 22.0867 29.1967 22.0867H29.9667C31.4667 22.1067 31.8533 22.2033 32.3967 22.34C33.4967 22.6033 33.52 23.3133 33.4233 25.7433C33.3933 26.4333 33.3633 27.2133 33.3633 28.1333C33.3633 28.3333 33.3533 28.5467 33.3533 28.7733C33.32 30.01 33.28 31.4133 34.1533 31.99C34.2672 32.0614 34.3989 32.0995 34.5333 32.1C34.8367 32.1 35.75 32.1 38.2233 27.8567C38.9861 26.4909 39.649 25.0716 40.2067 23.61C40.2567 23.5233 40.4033 23.2567 40.5767 23.1533C40.7046 23.0881 40.8464 23.0549 40.99 23.0567H46.9267C47.5733 23.0567 48.0167 23.1533 48.1 23.4033C48.2467 23.8 48.0733 25.01 45.3633 28.68L44.1533 30.2767C41.6967 33.4967 41.6967 33.66 44.3067 36.1033Z" fill="#E9765B"/>
</svg>
