<svg width="50" height="60" viewBox="0 0 50 60" fill="none" xmlns="http://www.w3.org/2000/svg">
<path d="M48.0727 1.08717C47.7849 0.768253 47.4328 0.51392 47.0396 0.340912C46.6464 0.167904 46.221 0.0801461 45.7915 0.0834164H3.20811C2.77855 0.0801461 2.35316 0.167904 1.95996 0.340912C1.56676 0.51392 1.21467 0.768253 0.926862 1.08717C0.639826 1.40654 0.423665 1.78307 0.292602 2.19199C0.161539 2.60091 0.118544 3.03294 0.166445 3.45967L5.64145 52.7955C5.88955 55.0377 6.95941 57.1085 8.64454 58.6083C10.3297 60.108 12.5106 60.9304 14.7664 60.9167H34.294C36.5498 60.9304 38.7307 60.108 40.4159 58.6083C42.101 57.1085 43.1708 55.0377 43.419 52.7955L48.8331 3.45967C48.881 3.03294 48.838 2.60091 48.707 2.19199C48.5759 1.78307 48.3597 1.40654 48.0727 1.08717ZM37.2748 52.1263C37.1921 52.8737 36.8355 53.564 36.2738 54.0639C35.712 54.5638 34.9851 54.838 34.2331 54.8334H14.736C13.9841 54.838 13.2571 54.5638 12.6954 54.0639C12.1337 53.564 11.7771 52.8737 11.6944 52.1263L8.62228 24.4167H40.3773L37.2748 52.1263ZM41.0465 18.3334H7.95311L6.61478 6.16675H42.3848L41.0465 18.3334Z" fill="#478BA2"/>
</svg>
